<svg width="73" height="64" viewBox="0 0 73 64" fill="none" xmlns="http://www.w3.org/2000/svg">
<path fill-rule="evenodd" clip-rule="evenodd" d="M65.3716 53.168C65.3716 53.5104 65.2627 53.8271 65.1501 54.1375C64.3659 44.7167 57.8123 36.7423 48.5792 32.9055C52.1845 29.9807 54.4792 25.8272 54.4792 21.168C54.4792 14.5088 49.8609 8.8096 43.2964 6.4H61.7408C63.745 6.4 65.3716 6.60157 65.3716 8.36797V53.168ZM57.9757 57.6H14.4496C14.4496 57.6 14.4278 56.771 14.4278 56.643C14.4278 46.7358 22.9856 38.2721 33.9252 37.2641C36.3251 37.5457 37.251 37.1902 38.5871 37.043C49.4868 38.0862 57.9974 46.7935 57.9974 56.6719C57.9974 56.7999 57.9757 57.6 57.9757 57.6ZM7.27873 53.168V8.36797C7.27873 6.60157 8.90533 6.4 10.9095 6.4H29.354C22.7895 8.8096 18.1712 14.5088 18.1712 21.168C18.1712 25.792 20.4295 29.9229 23.9877 32.8445C14.9288 36.5501 8.39337 44.2242 7.32228 53.3602C7.31865 53.293 7.27873 53.2352 7.27873 53.168ZM47.2176 21.168C47.2176 25.776 43.5105 29.6323 38.5871 30.5539C36.445 30.4003 35.846 30.4254 34.0306 30.5438C29.1253 29.6126 25.4328 25.7664 25.4328 21.168C25.4328 15.8752 30.3198 11.568 36.3252 11.568C42.3305 11.568 47.2176 15.8752 47.2176 21.168ZM65.3716 0H7.27873C3.26669 0 0.0171204 2.864 0.0171204 6.4V57.6C0.0171204 61.1328 3.26669 64 7.27873 64H65.3716C69.3837 64 72.6332 61.1328 72.6332 57.6V6.4C72.6332 2.864 69.3837 0 65.3716 0Z" fill="white"/>
</svg>
