<svg width="25" height="25" viewBox="0 0 25 25" fill="none" xmlns="http://www.w3.org/2000/svg">
<g clip-path="url(#clip0_15_86)">
<path d="M12.5 25C19.4035 25 24.9999 19.4035 24.9999 12.4999C25 5.59642 19.4035 0 12.5 0C5.59642 0 0 5.59642 0 12.5C0 19.4036 5.59642 25 12.5 25Z" fill="#FF6465"/>
<path d="M15.3023 12.5L18.5933 9.20911C18.8325 8.9699 18.8325 8.58206 18.5933 8.3429L16.6572 6.40687C16.418 6.16766 16.0302 6.16766 15.791 6.40687L12.5001 9.69778L9.20919 6.40687C8.96998 6.16766 8.58214 6.16766 8.34298 6.40687L6.40695 8.3429C6.16774 8.58211 6.16774 8.96995 6.40695 9.20911L9.69786 12.5L6.40695 15.7909C6.16774 16.0301 6.16774 16.418 6.40695 16.6572L8.34298 18.5932C8.58219 18.8324 8.97003 18.8324 9.20919 18.5932L12.5001 15.3023L15.7911 18.5932C16.0303 18.8324 16.4181 18.8324 16.6573 18.5932L18.5933 16.6572C18.8325 16.418 18.8325 16.0301 18.5933 15.7909L15.3023 12.5Z" fill="white"/>
</g>
<defs>
<clipPath id="clip0_15_86">
<rect width="25" height="25" fill="white"/>
</clipPath>
</defs>
</svg>
