<svg width="36" height="36" viewBox="0 0 55 43" fill="none" xmlns="http://www.w3.org/2000/svg">
<ellipse cx="51.3777" cy="21.4276" rx="2.58737" ry="2.58737" fill="white"/>
<path d="M42.8764 7.60349C26.6129 6.12499 46.5726 38.652 2.95702 34.9558" stroke="white" stroke-width="4.1" stroke-linecap="round" stroke-linejoin="round"/>
<path d="M0 7.3079C0 5.83812 1.19151 4.64661 2.66129 4.64661H52.3387C53.8085 4.64661 55 5.83812 55 7.3079C55 8.77767 53.8085 9.96919 52.3387 9.96919H2.66129C1.19151 9.96919 0 8.77767 0 7.3079Z" fill="white"/>
<path d="M0 21.5014C0 20.0317 1.19151 18.8402 2.66129 18.8402H42.5806C44.0504 18.8402 45.2419 20.0317 45.2419 21.5014C45.2419 22.9712 44.0504 24.1627 42.5807 24.1627H2.66129C1.19151 24.1627 0 22.9712 0 21.5014Z" fill="white"/>
</svg>
