<svg width="30" height="30" viewBox="0 0 30 30" fill="none" xmlns="http://www.w3.org/2000/svg">
<path fill-rule="evenodd" clip-rule="evenodd" d="M22.5 7.5H7.5C6.98156 7.5 6.5625 7.92 6.5625 8.4375C6.5625 8.95594 6.98156 9.375 7.5 9.375H22.5C23.0184 9.375 23.4375 8.95594 23.4375 8.4375C23.4375 7.92 23.0184 7.5 22.5 7.5ZM28.125 26.25C28.125 27.2803 27.1069 28.1362 26.0784 28.1362H3.72562C2.69719 28.1362 1.86281 27.3019 1.86281 26.2716V3.90469C1.86281 2.87438 2.72062 1.875 3.75 1.875H26.25C27.2794 1.875 28.125 2.72062 28.125 3.75V26.25ZM26.25 0H3.75C1.69313 0 0 1.84594 0 3.90469V26.2716C0 28.3313 1.66781 30 3.72562 30H26.0784C28.1362 30 30 28.3088 30 26.25V3.75C30 1.69125 28.3069 0 26.25 0ZM22.5 18.75H7.5C6.98156 18.75 6.5625 19.17 6.5625 19.6875C6.5625 20.2059 6.98156 20.625 7.5 20.625H22.5C23.0184 20.625 23.4375 20.2059 23.4375 19.6875C23.4375 19.17 23.0184 18.75 22.5 18.75ZM22.5 13.125H7.5C6.98156 13.125 6.5625 13.545 6.5625 14.0625C6.5625 14.5809 6.98156 15 7.5 15H22.5C23.0184 15 23.4375 14.5809 23.4375 14.0625C23.4375 13.545 23.0184 13.125 22.5 13.125Z" fill="white"/>
</svg>
