<svg width="25" height="27" viewBox="0 0 25 27" fill="none" xmlns="http://www.w3.org/2000/svg">
<path d="M8.77177 19.8838H4.43642C2.82971 19.8838 2.02636 19.8838 1.85733 19.7591C1.66743 19.6189 1.62104 19.5361 1.60047 19.3011C1.58217 19.0918 2.07454 18.2861 3.05931 16.6748C4.07605 15.011 4.9394 12.5886 4.9394 9.15901C4.9394 7.26275 5.74649 5.44416 7.18311 4.1033C8.61975 2.76244 10.5682 2.00916 12.5999 2.00916C14.6317 2.00916 16.5801 2.76244 18.0167 4.1033C19.4535 5.44416 20.2605 7.26275 20.2605 9.15901C20.2605 12.5886 21.1239 15.011 22.1407 16.6748C23.1253 18.2861 23.6177 19.0918 23.5995 19.3011C23.5789 19.5361 23.5325 19.6189 23.3426 19.7591C23.1736 19.8838 22.3702 19.8838 20.7636 19.8838H16.4302M8.77177 19.8838L8.76968 21.1606C8.76968 23.276 10.4846 24.9908 12.5999 24.9908C14.7154 24.9908 16.4302 23.276 16.4302 21.1606V19.8838M8.77177 19.8838H16.4302" stroke="#EAEAEA" stroke-width="2.2" stroke-linecap="round" stroke-linejoin="round"/>
</svg>
