<svg width="10" height="15" viewBox="0 0 10 15" fill="none" xmlns="http://www.w3.org/2000/svg">
<path fill-rule="evenodd" clip-rule="evenodd" d="M5 0C7.76142 0 10 2.23858 10 5C10 5.91084 9.75714 6.76429 9.33092 7.50029C9.04677 7.99096 7.60313 10.4909 5 15C2.39687 10.4909 0.953227 7.99096 0.669079 7.50029C0.242857 6.76429 0 5.91084 0 5C0 2.23858 2.23858 0 5 0ZM5 2.85714C3.81653 2.85714 2.85714 3.81653 2.85714 5C2.85714 6.18347 3.81653 7.14286 5 7.14286C6.18347 7.14286 7.14286 6.18347 7.14286 5C7.14286 3.81653 6.18347 2.85714 5 2.85714Z" fill="white"/>
</svg>
